<?xml version="1.0" encoding="UTF-8" standalone="no"?>
<svg
   viewBox="0 0 20 20"
   version="1.1"
   id="svg4"
   sodipodi:docname="message-error.svg"
   width="20"
   height="20"
   inkscape:version="1.2 (dc2aedaf03, 2022-05-15)"
   inkscape:export-filename=".\message-error.png"
   inkscape:export-xdpi="96"
   inkscape:export-ydpi="96"
   xmlns:inkscape="http://www.inkscape.org/namespaces/inkscape"
   xmlns:sodipodi="http://sodipodi.sourceforge.net/DTD/sodipodi-0.dtd"
   xmlns="http://www.w3.org/2000/svg"
   xmlns:svg="http://www.w3.org/2000/svg">
  <defs
     id="defs8" />
  <sodipodi:namedview
     id="namedview6"
     pagecolor="#ffffff"
     bordercolor="#000000"
     borderopacity="0.25"
     inkscape:showpageshadow="2"
     inkscape:pageopacity="0.0"
     inkscape:pagecheckerboard="0"
     inkscape:deskcolor="#d1d1d1"
     showgrid="false"
     inkscape:zoom="41.224325"
     inkscape:cx="5.8824492"
     inkscape:cy="10.091129"
     inkscape:window-width="2560"
     inkscape:window-height="1369"
     inkscape:window-x="-8"
     inkscape:window-y="-8"
     inkscape:window-maximized="1"
     inkscape:current-layer="svg4" />
  <!--! Font Awesome Pro 6.4.2 by @fontawesome - https://fontawesome.com License - https://fontawesome.com/license (Commercial License) Copyright 2023 Fonticons, Inc. -->
  <path
     d="m 13.44583,7.7407805 c 0.27857,-0.2785689 0.278568,-0.7309652 -1e-6,-1.0095342 -0.278569,-0.2785694 -0.730964,-0.2785702 -1.009534,-1.1e-6 L 10.089629,9.080145 7.740787,6.733424 C 7.4622184,6.454854 7.0097978,6.4548785 6.7312288,6.7334475 6.4526595,7.0120168 6.4524697,7.4646027 6.7310385,7.7431725 l 2.3490898,2.3464735 -2.3466691,2.348889 c -0.2785699,0.27857 -0.2785699,0.730972 -9e-7,1.009541 0.2785691,0.278571 0.730965,0.27857 1.0095348,0 l 2.3467239,-2.348844 2.3489,2.346666 c 0.278569,0.278569 0.730965,0.278569 1.009534,-10e-7 0.27857,-0.27857 0.278569,-0.730962 0,-1.009531 l -2.348844,-2.346722 z"
     id="path2"
     style="fill:#ef4136;fill-opacity:1;stroke:none;stroke-width:0.999998;stroke-opacity:1"
     sodipodi:nodetypes="cscccscccscccsccc" />
  <circle
     style="opacity:0.929782;fill:none;stroke:#ef4136;stroke-width:1.15;stroke-miterlimit:13;stroke-dasharray:none;stroke-opacity:1;paint-order:stroke fill markers"
     id="path343"
     cx="10"
     cy="10"
     r="9.4250002" />
</svg>
