<?xml version="1.0" encoding="UTF-8" standalone="no"?>
<!-- Created with Inkscape (http://www.inkscape.org/) -->

<svg
	width="512"
	height="512"
	viewBox="0 0 135.46666 135.46667"
	version="1.1"
	id="svg5"
	xml:space="preserve"
	inkscape:version="1.2 (dc2aedaf03, 2022-05-15)"
	sodipodi:docname="YumiSign-app-dark.svg"
	inkscape:export-filename=".\YumiSign-app-dark.png"
	inkscape:export-xdpi="96"
	inkscape:export-ydpi="96"
	xmlns:inkscape="http://www.inkscape.org/namespaces/inkscape"
	xmlns:sodipodi="http://sodipodi.sourceforge.net/DTD/sodipodi-0.dtd"
	xmlns="http://www.w3.org/2000/svg"
	xmlns:svg="http://www.w3.org/2000/svg">
	<sodipodi:namedview id="namedview7" pagecolor="#ff00f4" bordercolor="#000000" borderopacity="0.25" inkscape:showpageshadow="2" inkscape:pageopacity="0" inkscape:pagecheckerboard="0" inkscape:deskcolor="#d1d1d1" inkscape:document-units="px" showgrid="false" inkscape:zoom="1.6103252" inkscape:cx="89.733428" inkscape:cy="217.3474" inkscape:window-width="2560" inkscape:window-height="1369" inkscape:window-x="-8" inkscape:window-y="-8" inkscape:window-maximized="1" inkscape:current-layer="layer2" showguides="true">
 	<sodipodi:guide position="161.3468,-23.142513" orientation="0,-1" id="guide1016" inkscape:locked="false" /></sodipodi:namedview>
	<defs id="defs2" />

	<style type="text/css" id="YumiSignStyleAppLogo">
		.YumiSignLogoBlackLight {
			opacity: 0.66436;
			fill: #000000;
			stroke-width: 0.389907;
			stroke-linecap: square;
			stroke-miterlimit: 15.6;
			stroke-dasharray: 9.35776, 2.33944, 1.16972, 2.33944;
		}

		.YumiSignLogoBlackDark {
			opacity: 1;
			fill: #000000;
			stroke-width: 0.389907;
			stroke-linecap: square;
			stroke-miterlimit: 15.6;
			stroke-dasharray: 9.35776, 2.33944, 1.16972, 2.33944;
		}
	</style>

	<g inkscape:groupmode="layer" id="layer2" inkscape:label="Layer 2" /><g id="g1061" transform="matrix(2,0,0,2,9.6983196e-7,2.2448409e-6)">
		<g class="YumiSignGrpBlack" id="grpYumiSignTopRight" transform="matrix(1.0992008,0,0,1.0992175,-74.890488,-110.48819)">
			<path class="YumiSignLogoBlackLight" id="YMSlblTop" d="m 96.854553,100.51531 a 9.5742121,9.5742121 0 0 0 -9.574092,9.57409 9.5742121,9.5742121 0 0 0 9.574609,9.5741 h 23.32261 a 9.5742121,9.5742121 0 0 0 9.57461,-9.5741 9.5742121,9.5742121 0 0 0 -9.57461,-9.57409 z" />
			<path class="YumiSignLogoBlackLight" id="YMSlblBottom" d="m 120.17768,100.51531 a 9.5742121,9.5742121 0 0 0 -9.1488,6.75204 9.5742121,9.5742121 0 0 0 -0.185,0.69143 9.5742121,9.5742121 0 0 0 -0.2403,2.13062 v 23.32313 a 9.5742121,9.5742121 0 0 0 9.5741,9.57409 9.5742121,9.5742121 0 0 0 9.57461,-9.57409 V 110.0894 a 9.5742121,9.5742121 0 0 0 -3.25407,-7.19129 9.5742121,9.5742121 0 0 0 -0.37827,-0.31574 9.5742121,9.5742121 0 0 0 -2.79673,-1.53582 9.5742121,9.5742121 0 0 0 -0.46974,-0.14987 9.5742121,9.5742121 0 0 0 -2.6758,-0.38137 z" />
			<path class="YumiSignLogoBlackDark" id="path5693" style="" d="m 120.17768,100.5154 a 9.5742121,9.5742121 0 0 0 -9.1488,6.75204 9.5742121,9.5742121 0 0 0 -0.185,0.69143 9.5742121,9.5742121 0 0 0 -0.24029,2.13062 v 9.5741 h 9.57409 a 9.5742121,9.5742121 0 0 0 9.57461,-9.5741 9.5742121,9.5742121 0 0 0 -0.0455,-0.92294 9.5742121,9.5742121 0 0 0 -0.0387,-0.27233 9.5742121,9.5742121 0 0 0 -0.0946,-0.63924 9.5742121,9.5742121 0 0 0 -0.0858,-0.35605 9.5742121,9.5742121 0 0 0 -0.13385,-0.53485 9.5742121,9.5742121 0 0 0 -0.1359,-0.39533 9.5742121,9.5742121 0 0 0 -0.1695,-0.47335 9.5742121,9.5742121 0 0 0 -0.18035,-0.39946 9.5742121,9.5742121 0 0 0 -0.20516,-0.43357 9.5742121,9.5742121 0 0 0 -0.21962,-0.38395 9.5742121,9.5742121 0 0 0 -0.24908,-0.416 9.5742121,9.5742121 0 0 0 -0.25219,-0.3576 9.5742121,9.5742121 0 0 0 -0.28525,-0.38499 9.5742121,9.5742121 0 0 0 -0.29352,-0.34261 9.5742121,9.5742121 0 0 0 -0.31626,-0.34882 9.5742121,9.5742121 0 0 0 -0.32453,-0.31367 9.5742121,9.5742121 0 0 0 -0.41393,-0.37466 9.5742121,9.5742121 0 0 0 -0.10025,-0.0842 9.5742121,9.5742121 0 0 0 -0.62322,-0.46199 9.5742121,9.5742121 0 0 0 -0.0982,-0.0713 9.5742121,9.5742121 0 0 0 -0.75241,-0.45062 9.5742121,9.5742121 0 0 0 -0.23823,-0.11886 9.5742121,9.5742121 0 0 0 -0.55552,-0.262 9.5742121,9.5742121 0 0 0 -0.30179,-0.11988 9.5742121,9.5742121 0 0 0 -0.62632,-0.22376 9.5742121,9.5742121 0 0 0 -0.0863,-0.0274 9.5742121,9.5742121 0 0 0 -0.57206,-0.14315 9.5742121,9.5742121 0 0 0 -0.3421,-0.0827 9.5742121,9.5742121 0 0 0 -0.63923,-0.0946 9.5742121,9.5742121 0 0 0 -0.27234,-0.0388 9.5742121,9.5742121 0 0 0 -0.92294,-0.0455 z" />
		</g>
		<g class="YumiSignGrpBlack" id="grpYumiSignTopRight" transform="matrix(-1.0992008,0,0,-1.0992175,142.62382,178.22152)" style="fill:#000000">
			<path class="YumiSignLogoBlackLight" id="YMSlblTop" d="m 96.854553,100.51531 a 9.5742121,9.5742121 0 0 0 -9.574092,9.57409 9.5742121,9.5742121 0 0 0 9.574609,9.5741 h 23.32261 a 9.5742121,9.5742121 0 0 0 9.57461,-9.5741 9.5742121,9.5742121 0 0 0 -9.57461,-9.57409 z" />
			<path class="YumiSignLogoBlackLight" id="YMSlblBottom" d="m 120.17768,100.51531 a 9.5742121,9.5742121 0 0 0 -9.1488,6.75204 9.5742121,9.5742121 0 0 0 -0.185,0.69143 9.5742121,9.5742121 0 0 0 -0.2403,2.13062 v 23.32313 a 9.5742121,9.5742121 0 0 0 9.5741,9.57409 9.5742121,9.5742121 0 0 0 9.57461,-9.57409 V 110.0894 a 9.5742121,9.5742121 0 0 0 -3.25407,-7.19129 9.5742121,9.5742121 0 0 0 -0.37827,-0.31574 9.5742121,9.5742121 0 0 0 -2.79673,-1.53582 9.5742121,9.5742121 0 0 0 -0.46974,-0.14987 9.5742121,9.5742121 0 0 0 -2.6758,-0.38137 z" />
			<path class="YumiSignLogoBlackDark" id="path5704" style="" d="m 120.17768,100.5154 a 9.5742121,9.5742121 0 0 0 -9.1488,6.75204 9.5742121,9.5742121 0 0 0 -0.185,0.69143 9.5742121,9.5742121 0 0 0 -0.24029,2.13062 v 9.5741 h 9.57409 a 9.5742121,9.5742121 0 0 0 9.57461,-9.5741 9.5742121,9.5742121 0 0 0 -0.0455,-0.92294 9.5742121,9.5742121 0 0 0 -0.0387,-0.27233 9.5742121,9.5742121 0 0 0 -0.0946,-0.63924 9.5742121,9.5742121 0 0 0 -0.0858,-0.35605 9.5742121,9.5742121 0 0 0 -0.13385,-0.53485 9.5742121,9.5742121 0 0 0 -0.1359,-0.39533 9.5742121,9.5742121 0 0 0 -0.1695,-0.47335 9.5742121,9.5742121 0 0 0 -0.18035,-0.39946 9.5742121,9.5742121 0 0 0 -0.20516,-0.43357 9.5742121,9.5742121 0 0 0 -0.21962,-0.38395 9.5742121,9.5742121 0 0 0 -0.24908,-0.416 9.5742121,9.5742121 0 0 0 -0.25219,-0.3576 9.5742121,9.5742121 0 0 0 -0.28525,-0.38499 9.5742121,9.5742121 0 0 0 -0.29352,-0.34261 9.5742121,9.5742121 0 0 0 -0.31626,-0.34882 9.5742121,9.5742121 0 0 0 -0.32453,-0.31367 9.5742121,9.5742121 0 0 0 -0.41393,-0.37466 9.5742121,9.5742121 0 0 0 -0.10025,-0.0842 9.5742121,9.5742121 0 0 0 -0.62322,-0.46199 9.5742121,9.5742121 0 0 0 -0.0982,-0.0713 9.5742121,9.5742121 0 0 0 -0.75241,-0.45062 9.5742121,9.5742121 0 0 0 -0.23823,-0.11886 9.5742121,9.5742121 0 0 0 -0.55552,-0.262 9.5742121,9.5742121 0 0 0 -0.30179,-0.11988 9.5742121,9.5742121 0 0 0 -0.62632,-0.22376 9.5742121,9.5742121 0 0 0 -0.0863,-0.0274 9.5742121,9.5742121 0 0 0 -0.57206,-0.14315 9.5742121,9.5742121 0 0 0 -0.3421,-0.0827 9.5742121,9.5742121 0 0 0 -0.63923,-0.0946 9.5742121,9.5742121 0 0 0 -0.27234,-0.0388 9.5742121,9.5742121 0 0 0 -0.92294,-0.0455 z" />
		</g>
	</g>
</svg>