<?xml version="1.0" encoding="UTF-8" standalone="no"?>
<svg version="1.1" id="applicationLogo" x="0px" y="0px" viewBox="0 0 640.5 137.7" style="enable-background:new 0 0 640.5 137.7;" xml:space="preserve" sodipodi:docname="applicationLogo.svg" inkscape:version="1.2 (dc2aedaf03, 2022-05-15)"
	xmlns:inkscape="http://www.inkscape.org/namespaces/inkscape"
	xmlns:sodipodi="http://sodipodi.sourceforge.net/DTD/sodipodi-0.dtd"
	xmlns="http://www.w3.org/2000/svg"
	xmlns:svg="http://www.w3.org/2000/svg">
	<defs id="defs6048" />
	<sodipodi:namedview id="namedview6046" pagecolor="#ffffff" bordercolor="#000000" borderopacity="0.25" inkscape:showpageshadow="2" inkscape:pageopacity="0.0" inkscape:pagecheckerboard="0" inkscape:deskcolor="#d1d1d1" showgrid="false" inkscape:zoom="1.9172521" inkscape:cx="215.15167" inkscape:cy="68.848534" inkscape:window-width="2560" inkscape:window-height="1369" inkscape:window-x="-8" inkscape:window-y="-8" inkscape:window-maximized="1" inkscape:current-layer="applicationLogo" />

	<style type="text/css" id="YumiSignStyleAppLogo">
		.YumiSign-logo-st0{fill:#253F4A;}
		.YumiSign-logo-st1{fill:#F7A621;}
		.YumiSign-logo-st2{fill:#EC6910;}
		.YumiSign-logo-st3{fill:none;}
	</style>
	<g id="YumiSignLogo">
		<g id="g6013">
			<g id="g6005">
				<path class="YumiSign-logo-st0" d="M24.2,87h18.1V60.4c0-10-8.1-18.1-18.1-18.1c-10,0-18.1,8.1-18.1,18.1v44.8C6.1,95.1,14.2,87,24.2,87z" id="path5999" />
				<path class="YumiSign-logo-st0" d="M68.9,87l-26.7,0v18.1c0,10-8.1,18.1-18.1,18.1h44.8c10,0,18.1-8.1,18.1-18.1C87,95.1,78.9,87,68.9,87z" id="path6001" />
				<path d="M42.3,105.1V87H24.2c-10,0-18.1,8.1-18.1,18.1c0,10,8.1,18.1,18.1,18.1C34.2,123.2,42.3,115.1,42.3,105.1z" id="path6003" />
			</g>
			<path class="YumiSign-logo-st1" d="M101,46.4l-18.1,0v26.7c0,10,8.1,18.1,18.1,18.1c10,0,18.1-8.1,18.1-18.1l0-44.8 C119.1,38.3,111,46.4,101,46.4z" id="path6007" />
			<path class="YumiSign-logo-st1" d="M56.2,46.4h26.7V28.3c0-10,8.1-18.1,18.1-18.1H56.2c-10,0-18.1,8.1-18.1,18.1C38.1,38.3,46.2,46.4,56.2,46.4z " id="path6009" />
			<path class="YumiSign-logo-st2" d="M82.9,28.3v18.1l18.1,0c10,0,18.1-8.1,18.1-18.1c0-10-8.1-18.1-18.1-18.1C91,10.2,82.9,18.3,82.9,28.3z" id="path6011" />
		</g>
	</g>
	<g id="YumiSignLabel">
		<path id="letterY" class="YumiSignLetter" d="M217.2,31.2c0-1.5-0.6-2.8-1.7-3.8c-1.1-1-2.6-1.5-4.6-1.5c-1.7,0-3,0.4-4.2,1.1c-1.1,0.7-2.3,1.9-3.5,3.5l-18.7,26.4 L166,30.5c-1.1-1.6-2.3-2.7-3.5-3.5c-1.2-0.7-2.6-1.1-4.1-1.1c-2,0-3.6,0.5-4.7,1.6c-1.1,1.1-1.7,2.4-1.9,3.9 c-0.1,1.5,0.3,3,1.3,4.3l24.1,33.9v29.8c0,2.4,0.6,4.3,1.9,5.6s3,2,5.3,2c4.8,0,7.2-2.5,7.2-7.5V69.8l24-33.9 C216.7,34.2,217.2,32.7,217.2,31.2z" inkscape:label="" style="enable-background:new 0 0 640.5 137.7" />
		<path id="letterU" class="YumiSignLetter" d="M266.7,51.9c-1.2-1.2-3-1.7-5.2-1.7s-4,0.6-5.2,1.7c-1.2,1.2-1.8,2.9-1.8,5.3V82c0,4.3-1.2,7.7-3.6,10.3 c-2.4,2.6-5.5,3.9-9.2,3.9c-3.5,0-6-0.9-7.5-2.8c-1.6-1.9-2.4-4.8-2.4-8.7V57.3c0-2.4-0.6-4.2-1.9-5.3c-1.2-1.2-3-1.7-5.2-1.7 c-2.3,0-4,0.6-5.2,1.7c-1.2,1.2-1.8,2.9-1.8,5.3v27.2c0,5,0.7,9.2,2.2,12.6c1.5,3.4,3.7,5.9,6.7,7.6c3,1.7,6.8,2.5,11.4,2.5 c4.4,0,8.1-1.1,11.3-3.3c2.3-1.5,4.1-3.6,5.6-6.1v1.9c0,2.3,0.6,4.1,1.8,5.3c1.2,1.2,2.9,1.9,5.1,1.9c4.6,0,6.9-2.4,6.9-7.2V57.3 C268.6,54.9,268,53.1,266.7,51.9z" inkscape:label="" style="enable-background:new 0 0 640.5 137.7" />
		<path id="letterM" class="YumiSignLetter" d="M365.4,59.9c-1.3-3.3-3.4-5.8-6.1-7.5c-2.7-1.6-6.2-2.5-10.4-2.5c-4.5,0-8.5,1.1-11.9,3.4c-2.8,1.9-5,4.3-6.5,7.3 c-1.2-3.3-2.9-5.9-5.3-7.6c-2.9-2.1-6.5-3.2-10.9-3.2c-4.4,0-8.1,1.1-11.3,3.3c-2.4,1.6-4.3,3.8-5.7,6.3v-2.3 c0-2.3-0.6-4.1-1.8-5.3c-1.2-1.2-2.9-1.8-5.1-1.8c-2.2,0-3.9,0.6-5.1,1.8c-1.2,1.2-1.8,3-1.8,5.3v42.5c0,2.3,0.6,4.1,1.8,5.3 c1.2,1.2,2.9,1.9,5.2,1.9c4.7,0,7.1-2.4,7.1-7.2V75.6c0-4.6,1-8.2,3.2-10.8c2.1-2.6,5-3.9,8.7-3.9c3.2,0,5.5,1,6.9,2.9 c1.4,2,2.1,5,2.1,9.2v26.7c0,2.3,0.6,4.1,1.9,5.3s3,1.9,5.2,1.9s4-0.6,5.2-1.9c1.2-1.2,1.8-3,1.8-5.3V75.6c0-4.6,1.1-8.2,3.2-10.8 c2.1-2.6,5-3.9,8.7-3.9c3.3,0,5.6,1,7,2.9c1.4,2,2.1,5,2.1,9.2v26.7c0,2.3,0.6,4.1,1.8,5.3c1.2,1.2,2.9,1.9,5.2,1.9s4-0.6,5.2-1.9 s1.9-3,1.9-5.3V72.6C367.4,67.5,366.7,63.3,365.4,59.9z" inkscape:label="" style="enable-background:new 0 0 640.5 137.7" />
		<g id="letterI1" class="YumiSignLetter" inkscape:label="" style="enable-background:new 0 0 640.5 137.7">
			<path d="M388.9,50.3c-2.3,0-4,0.7-5.2,2c-1.2,1.3-1.8,3.2-1.8,5.7v41.3c0,2.4,0.6,4.3,1.8,5.6c1.2,1.4,2.9,2,5.2,2 c2.3,0,4.1-0.7,5.3-2c1.2-1.4,1.8-3.2,1.8-5.6V57.9c0-2.5-0.6-4.4-1.9-5.7C392.9,50.9,391.2,50.3,388.9,50.3z" id="path6022" />
			<path d="M388.9,39.8c2.7,0,4.8-0.7,6.2-2c1.4-1.3,2.1-3.1,2.1-5.5c0-2.4-0.7-4.2-2.1-5.5c-1.4-1.3-3.5-1.9-6.2-1.9 c-2.6,0-4.7,0.6-6.1,1.9c-1.5,1.3-2.2,3.1-2.2,5.5c0,2.3,0.7,4.1,2.2,5.5C384.2,39.2,386.3,39.8,388.9,39.8z" id="path6024" />
		</g>
		<path id="letterS" class="YumiSignLetter" d="M465.2,69.9c-3.6-3.4-9.2-5.9-16.6-7.4l-12.3-2.6c-4.4-0.9-7.4-2.2-9.2-3.8c-1.8-1.6-2.7-3.8-2.7-6.5c0-2.4,0.7-4.5,2-6.2 c1.3-1.8,3.2-3.1,5.7-4.1c2.5-1,5.4-1.5,8.9-1.5c3.3,0,6.4,0.3,9.2,1c2.9,0.7,5.7,1.8,8.4,3.4c1.6,0.9,3,1.3,4.2,1.1 c1.2-0.1,2.3-0.6,3.1-1.5c0.8-0.8,1.4-1.8,1.6-3c0.2-1.2,0.1-2.3-0.3-3.5c-0.4-1.2-1.2-2.2-2.4-3c-3.2-2.2-6.9-3.8-10.9-5 s-8.3-1.7-12.8-1.7c-4.6,0-8.8,0.6-12.6,1.7c-3.8,1.2-7.1,2.8-9.8,5c-2.7,2.2-4.9,4.8-6.4,7.8c-1.5,3-2.3,6.3-2.3,10 c0,5.9,1.7,10.6,5.2,14.1c3.5,3.6,8.8,6.1,15.9,7.6l12.4,2.6c4.7,1,7.9,2.2,9.8,3.7c1.9,1.5,2.9,3.6,2.9,6.2c0,3.2-1.4,5.7-4.1,7.7 c-2.7,2-7,3-12.9,3c-4.1,0-7.9-0.5-11.6-1.4c-3.7-0.9-7.2-2.3-10.5-4.3c-1.4-0.9-2.7-1.2-3.9-1c-1.2,0.2-2.2,0.8-3,1.7 c-0.8,0.9-1.3,2-1.5,3.3c-0.2,1.2,0,2.5,0.5,3.8c0.5,1.3,1.5,2.4,2.8,3.3c2.3,1.5,5,2.8,7.9,3.8s6,1.8,9.3,2.3 c3.3,0.5,6.6,0.7,9.9,0.7c4.8,0,9.1-0.6,12.9-1.7c3.8-1.1,7.1-2.7,9.8-4.8c2.7-2.1,4.8-4.6,6.3-7.5c1.5-2.9,2.2-6.2,2.2-9.8 C470.6,77.8,468.8,73.3,465.2,69.9z" inkscape:label="" />
		<g id="letterI2" class="YumiSignLetter" style="enable-background:new 0 0 640.5 137.7">
			<path  d="M488.6,50.3c-2.3,0-4,0.7-5.2,2c-1.2,1.3-1.8,3.2-1.8,5.7v41.3c0,2.4,0.6,4.3,1.8,5.6c1.2,1.4,2.9,2,5.2,2 c2.3,0,4.1-0.7,5.3-2c1.2-1.4,1.8-3.2,1.8-5.6V57.9c0-2.5-0.6-4.4-1.9-5.7C492.6,50.9,490.9,50.3,488.6,50.3z" id="path6030" />
			<path  d="M488.6,39.8c2.7,0,4.8-0.7,6.2-2c1.4-1.3,2.1-3.1,2.1-5.5c0-2.4-0.7-4.2-2.1-5.5c-1.4-1.3-3.5-1.9-6.2-1.9 c-2.6,0-4.7,0.6-6.1,1.9c-1.5,1.3-2.2,3.1-2.2,5.5c0,2.3,0.7,4.1,2.2,5.5C484,39.2,486,39.8,488.6,39.8z" id="path6032" />
		</g>
		<g id="letterG">
			<path class="YumiSign-logo-st3" d="M535.7,60.6c-2.9,0-5.4,0.7-7.5,2c-2.1,1.4-3.7,3.3-4.9,5.7c-1.2,2.5-1.7,5.4-1.7,8.9c0,5.2,1.3,9.3,3.8,12.3 c2.5,3,6,4.5,10.4,4.5c2.9,0,5.4-0.7,7.5-2c2.1-1.4,3.7-3.3,4.9-5.8c1.2-2.5,1.7-5.5,1.7-8.9c0-5.2-1.3-9.2-3.8-12.2 C543.5,62.1,540,60.6,535.7,60.6z" id="path6036" />
			<path class="YumiSignLetter" d="M561.9,52c-1.2-1.2-2.9-1.8-5.2-1.8c-2.2,0-3.9,0.6-5.1,1.8c-1.2,1.2-1.9,3-1.9,5.3v2.3c-1.2-2.5-3.1-4.5-5.7-6.2 c-3.5-2.3-7.6-3.4-12.2-3.4c-3.7,0-7,0.7-10.1,2c-3,1.3-5.6,3.2-7.8,5.6c-2.1,2.4-3.8,5.3-5,8.6c-1.2,3.3-1.7,7.1-1.7,11.2 c0,5.5,1,10.3,3,14.4c2,4.1,4.9,7.3,8.6,9.6c3.7,2.3,8,3.4,12.9,3.4c4.5,0,8.5-1.1,12.1-3.4c2.7-1.7,4.7-3.9,6-6.6v7.5 c0,4.8-1.3,8.4-3.8,10.9c-2.5,2.4-6.3,3.7-11.3,3.7c-2.1,0-4.6-0.2-7.6-0.7c-3-0.5-6.1-1.6-9.4-3.2c-1.1-0.6-2.2-0.8-3.3-0.5 c-1.1,0.3-1.9,0.9-2.6,1.7c-0.7,0.8-1.2,1.8-1.4,2.9c-0.2,1.1,0,2.2,0.5,3.2c0.5,1.1,1.4,2,2.9,2.7c3.1,1.6,6.5,2.7,10.3,3.5 c3.8,0.7,7.7,1.1,11.8,1.1c9,0,15.9-2.3,20.6-6.8c4.7-4.5,7.1-11.2,7.1-20.1V57.3C563.7,54.9,563.1,53.2,561.9,52z M548.1,86.3 c-1.2,2.5-2.8,4.4-4.9,5.8c-2.1,1.4-4.6,2-7.5,2c-4.4,0-7.8-1.5-10.4-4.5c-2.6-3-3.8-7.1-3.8-12.3c0-3.5,0.6-6.4,1.7-8.9 c1.2-2.5,2.8-4.4,4.9-5.7c2.1-1.4,4.6-2,7.5-2c4.4,0,7.8,1.5,10.4,4.4c2.6,3,3.8,7,3.8,12.2C549.9,80.8,549.3,83.7,548.1,86.3z" id="path6038" />
		</g>
		<path id="letterN" class="YumiSignLetter" d="M627.8,59.9c-1.4-3.3-3.6-5.8-6.4-7.5c-2.9-1.6-6.5-2.5-10.9-2.5c-4.4,0-8.4,1-11.9,3.1c-2.7,1.6-4.9,3.8-6.5,6.6v-2.3 c0-2.3-0.6-4.1-1.8-5.3c-1.2-1.2-2.9-1.8-5.1-1.8c-2.2,0-3.9,0.6-5.1,1.8c-1.2,1.2-1.8,3-1.8,5.3v42.5c0,2.3,0.6,4.1,1.8,5.3 c1.2,1.2,2.9,1.9,5.2,1.9c4.7,0,7.1-2.4,7.1-7.2V75.2c0-4.3,1.2-7.7,3.7-10.3c2.4-2.6,5.7-3.9,9.8-3.9c3.4,0,5.9,1,7.5,2.9 c1.6,2,2.4,5.1,2.4,9.3v26.6c0,2.3,0.6,4.1,1.9,5.3s3,1.9,5.2,1.9s4-0.6,5.2-1.9c1.2-1.2,1.8-3,1.8-5.3V72.6 C629.9,67.5,629.2,63.3,627.8,59.9z" />
	</g>
</svg>