<svg xmlns="http://www.w3.org/2000/svg" viewBox="0 0 32.68 32.68"><defs><style>.cls-1{fill:#f2f3f7;}.cls-2{fill:#ef8f22;}.cls-3{fill:#fff;}.cls-4{fill:#263239;}</style></defs><path class="cls-1" d="M151.93,113.11a16.34,16.34,0,1,1-16.34-16.34A16.34,16.34,0,0,1,151.93,113.11Z" transform="translate(-119.25 -96.77)"/><path class="cls-2" d="M128.14,105.77s3.85-.18,6-2.38c0,0,1.39-1.65,2.73-.31a9.22,9.22,0,0,0,6.07,2.59c1.72,0,2.71.82,2.71,2.89s1.55,14.62-9.95,17.38c0,0-10.81-.88-10-17C125.69,108.92,125.41,105.91,128.14,105.77Z" transform="translate(-119.25 -96.77)"/><circle class="cls-3" cx="16.38" cy="17.48" r="6.28"/><path class="cls-4" d="M137.64,113.79v-1.06a2,2,0,0,0-.47-1.29,1.93,1.93,0,0,0-1.48-.69,2,2,0,0,0-2,2v1.06h-.55V118h5v-4.23ZM136,115.93v.94h-.66v-.94a.58.58,0,0,1-.22-.45.56.56,0,0,1,.56-.55h0a.55.55,0,0,1,.55.55A.57.57,0,0,1,136,115.93Zm.67-2.14h-2.11v-1.16a1.06,1.06,0,1,1,2.11,0Z" transform="translate(-119.25 -96.77)"/></svg>