<svg xmlns="http://www.w3.org/2000/svg" viewBox="0 0 221.66 221.66"><defs><style>.cls-1{fill:#f2f3f7;}.cls-2{fill:#95c238;}.cls-3{fill:#fff;}.cls-4{fill:#263339;}</style></defs><path class="cls-1" d="M424.12,157.8A110.83,110.83,0,1,1,313.3,47,110.83,110.83,0,0,1,424.12,157.8Z" transform="translate(-202.46 -46.97)"/><path class="cls-2" d="M262.69,108.06s26.06-1.22,40.32-16.18c0,0,9.44-11.19,18.53-2.09s25.28,17.57,41.19,17.57c11.63,0,18.36,5.6,18.36,19.59s10.5,99.16-67.52,117.94c0,0-73.3-6-67.51-115.49C246.06,129.4,244.15,109,262.69,108.06Z" transform="translate(-202.46 -46.97)"/><circle class="cls-3" cx="313.65" cy="166.19" r="42.62" transform="translate(-228.11 223.48) rotate(-45)"/><circle class="cls-4" cx="313.65" cy="151.05" r="16.39" transform="translate(-111.38 371.76) rotate(-75.97)"/><path class="cls-4" d="M313.65,208.82A42.49,42.49,0,0,0,343,197.07a29.57,29.57,0,0,0-58.73,0A42.5,42.5,0,0,0,313.65,208.82Z" transform="translate(-202.46 -46.97)"/></svg>