<svg xmlns="http://www.w3.org/2000/svg" viewBox="0 0 221.66 221.66"><defs><style>.cls-1{fill:#f2f3f7;}.cls-2{fill:#9c9a9a;}.cls-3{fill:#fff;}.cls-4{fill:#1d1d1b;}</style></defs><path class="cls-1" d="M424.12,683.33A110.83,110.83,0,1,1,313.3,572.5,110.84,110.84,0,0,1,424.12,683.33Z" transform="translate(-202.46 -572.5)"/><path class="cls-2" d="M262.79,633.58s26-1.22,40.31-16.17c0,0,9.44-11.2,18.54-2.1s25.27,17.58,41.18,17.58c11.63,0,18.36,5.59,18.36,19.58s10.5,99.17-67.51,117.94c0,0-73.31-6-67.52-115.49C246.15,654.92,244.25,634.55,262.79,633.58Z" transform="translate(-202.46 -572.5)"/><circle class="cls-3" cx="111.09" cy="118.59" r="42.62"/><path class="cls-4" d="M305.35,713.44a4.86,4.86,0,0,1-3.46-1.44L291,701.12a4.91,4.91,0,0,1,6.94-6.94l7.41,7.42,24.19-24.19a4.91,4.91,0,0,1,6.94,6.94L308.82,712A4.88,4.88,0,0,1,305.35,713.44Z" transform="translate(-202.46 -572.5)"/></svg>