<?xml version="1.0" encoding="UTF-8" standalone="no"?>
<!-- Created with Inkscape (http://www.inkscape.org/) -->

<svg
   width="518"
   height="518"
   viewBox="0 0 137.05416 137.05417"
   version="1.1"
   id="svg5"
   xml:space="preserve"
   inkscape:version="1.2 (dc2aedaf03, 2022-05-15)"
   sodipodi:docname="YMS_icon.svg"
   inkscape:export-filename=".\YMS_icon.png"
   inkscape:export-xdpi="96"
   inkscape:export-ydpi="96"
   xmlns:inkscape="http://www.inkscape.org/namespaces/inkscape"
   xmlns:sodipodi="http://sodipodi.sourceforge.net/DTD/sodipodi-0.dtd"
   xmlns="http://www.w3.org/2000/svg"
   xmlns:svg="http://www.w3.org/2000/svg"><sodipodi:namedview
     id="namedview7"
     pagecolor="#ff00f4"
     bordercolor="#000000"
     borderopacity="0.25"
     inkscape:showpageshadow="2"
     inkscape:pageopacity="0"
     inkscape:pagecheckerboard="0"
     inkscape:deskcolor="#d1d1d1"
     inkscape:document-units="px"
     showgrid="false"
     inkscape:zoom="1.6103252"
     inkscape:cx="89.733428"
     inkscape:cy="217.3474"
     inkscape:window-width="2560"
     inkscape:window-height="1369"
     inkscape:window-x="-8"
     inkscape:window-y="-8"
     inkscape:window-maximized="1"
     inkscape:current-layer="layer2"
     showguides="true"><sodipodi:guide
       position="161.3468,-23.142513"
       orientation="0,-1"
       id="guide1016"
       inkscape:locked="false" /></sodipodi:namedview><defs
     id="defs2" /><g
     inkscape:groupmode="layer"
     id="layer1"
     inkscape:label="Orange"><path
       id="path1004"
       style="opacity:1;fill:none;fill-opacity:1;stroke:#ffffff;stroke-width:1.5875;stroke-linecap:square;stroke-miterlimit:15.6;stroke-dasharray:none"
       d="M 63.937974,0.79375002 A 21.047963,21.048283 0 0 0 42.890275,21.841764 21.047963,21.048283 0 0 0 63.939111,42.889801 H 115.21157 A 21.047963,21.048283 0 0 0 136.26041,21.841764 21.047963,21.048283 0 0 0 115.21157,0.79375002 Z"
       inkscape:label="white horizontal" /><path
       id="path1006"
       style="opacity:1;fill:none;fill-opacity:1;stroke:#ffffff;stroke-width:1.5875;stroke-linecap:square;stroke-miterlimit:15.6;stroke-dasharray:none"
       d="M 115.21157,0.79375002 A 21.047963,21.048283 0 0 0 95.098837,15.637671 21.047963,21.048283 0 0 0 94.692133,17.157735 21.047963,21.048283 0 0 0 94.163857,21.841764 V 73.116149 A 21.047963,21.048283 0 0 0 115.21157,94.164164 21.047963,21.048283 0 0 0 136.26041,73.116149 V 21.841764 A 21.047963,21.048283 0 0 0 129.10666,6.032181 21.047963,21.048283 0 0 0 128.27507,5.3380471 21.047963,21.048283 0 0 0 122.12673,1.9616466 21.047963,21.048283 0 0 0 121.09406,1.6321672 21.047963,21.048283 0 0 0 115.21157,0.79375002 Z"
       inkscape:label="white vertical" /><path
       id="path354-1"
       style="display:inline;opacity:1;fill:#f5a534;fill-opacity:1;stroke-width:0.857179;stroke-linecap:square;stroke-miterlimit:15.6;stroke-dasharray:20.5723, 5.14307, 2.57153, 5.14307"
       d="M 63.937974,0.79375002 A 21.047963,21.048283 0 0 0 42.890275,21.841764 21.047963,21.048283 0 0 0 63.939111,42.889801 H 115.21157 A 21.047963,21.048283 0 0 0 136.26041,21.841764 21.047963,21.048283 0 0 0 115.21157,0.79375002 Z"
       inkscape:label="orange horizontal" /><path
       id="path354-3-8"
       style="display:inline;opacity:1;fill:#f5a534;fill-opacity:1;stroke-width:0.857179;stroke-linecap:square;stroke-miterlimit:15.6;stroke-dasharray:20.5723, 5.14307, 2.57153, 5.14307"
       d="M 115.21157,0.79375002 A 21.047963,21.048283 0 0 0 95.098837,15.637671 21.047963,21.048283 0 0 0 94.692133,17.157735 21.047963,21.048283 0 0 0 94.163857,21.841764 V 73.116149 A 21.047963,21.048283 0 0 0 115.21157,94.164164 21.047963,21.048283 0 0 0 136.26041,73.116149 V 21.841764 A 21.047963,21.048283 0 0 0 129.10666,6.032181 21.047963,21.048283 0 0 0 128.27507,5.3380471 21.047963,21.048283 0 0 0 122.12673,1.9616466 21.047963,21.048283 0 0 0 121.09406,1.6321672 21.047963,21.048283 0 0 0 115.21157,0.79375002 Z"
       inkscape:label="orange vertical" /><path
       id="path5693"
       style="display:inline;fill:#eb6824;fill-opacity:1;stroke-width:0.857179;stroke-linecap:square;stroke-miterlimit:15.6;stroke-dasharray:20.5723, 5.14307, 2.57153, 5.14307"
       d="M 115.21157,0.79394788 A 21.047963,21.048283 0 0 0 95.098837,15.637868 a 21.047963,21.048283 0 0 0 -0.406704,1.520064 21.047963,21.048283 0 0 0 -0.528254,4.68403 v 21.048036 h 21.047691 a 21.047963,21.048283 0 0 0 21.04884,-21.048036 21.047963,21.048283 0 0 0 -0.10003,-2.029024 21.047963,21.048283 0 0 0 -0.0851,-0.598699 21.047963,21.048283 0 0 0 -0.20797,-1.405328 21.047963,21.048283 0 0 0 -0.18863,-0.782753 21.047963,21.048283 0 0 0 -0.29425,-1.175833 21.047963,21.048283 0 0 0 -0.29876,-0.869107 21.047963,21.048283 0 0 0 -0.37263,-1.040629 21.047963,21.048283 0 0 0 -0.39648,-0.878187 21.047963,21.048283 0 0 0 -0.45103,-0.953176 21.047963,21.048283 0 0 0 -0.48281,-0.844089 21.047963,21.048283 0 0 0 -0.54758,-0.914548 21.047963,21.048283 0 0 0 -0.55441,-0.7861605 21.047963,21.048283 0 0 0 -0.6271,-0.8463755 21.047963,21.048283 0 0 0 -0.64527,-0.7532058 21.047963,21.048283 0 0 0 -0.69527,-0.7668581 21.047963,21.048283 0 0 0 -0.71345,-0.6895832 21.047963,21.048283 0 0 0 -0.90998,-0.8236656 21.047963,21.048283 0 0 0 -0.22039,-0.1851082 21.047963,21.048283 0 0 0 -1.37009,-1.015655 21.047963,21.048283 0 0 0 -0.21588,-0.1567484 21.047963,21.048283 0 0 0 -1.6541,-0.9906588 21.047963,21.048283 0 0 0 -0.52373,-0.261306 21.047963,21.048283 0 0 0 -1.22125,-0.57599 21.047963,21.048283 0 0 0 -0.66346,-0.2635484 21.047963,21.048283 0 0 0 -1.3769,-0.4919218 21.047963,21.048283 0 0 0 -0.18972,-0.060237 21.047963,21.048283 0 0 0 -1.25762,-0.314706 21.047963,21.048283 0 0 0 -0.75207,-0.1818105 21.047963,21.048283 0 0 0 -1.40529,-0.20797199 21.047963,21.048283 0 0 0 -0.59871,-0.0852993 21.047963,21.048283 0 0 0 -2.02899,-0.10002879 z"
       inkscape:label="orange dark" /></g><g
     inkscape:groupmode="layer"
     id="layer2"
     inkscape:label="Black"><path
       id="path997"
       style="opacity:1;fill:none;fill-opacity:1;stroke:#ffffff;stroke-width:1.5875;stroke-linecap:square;stroke-miterlimit:15.6;stroke-dasharray:none"
       d="M 21.841448,94.164365 A 21.047963,21.048283 0 0 0 0.79374999,115.21238 21.047963,21.048283 0 0 0 21.842585,136.26041 h 51.272459 a 21.047963,21.048283 0 0 0 21.04884,-21.04803 21.047963,21.048283 0 0 0 -21.04884,-21.048015 z"
       inkscape:label="white horizontal" /><path
       id="path994"
       style="opacity:1;fill:none;fill-opacity:1;stroke:#ffffff;stroke-width:1.5875;stroke-linecap:square;stroke-miterlimit:15.6;stroke-dasharray:none"
       d="M 21.841462,42.890002 A 21.047963,21.048283 0 0 0 1.72873,57.733923 21.047963,21.048283 0 0 0 1.322026,59.253987 21.047963,21.048283 0 0 0 0.79374999,63.938016 V 115.2124 A 21.047963,21.048283 0 0 0 21.841462,136.26041 21.047963,21.048283 0 0 0 42.890302,115.2124 V 63.938016 a 21.047963,21.048283 0 0 0 -7.15375,-15.809583 21.047963,21.048283 0 0 0 -0.83159,-0.694134 21.047963,21.048283 0 0 0 -6.14834,-3.376401 21.047963,21.048283 0 0 0 -1.03267,-0.329479 21.047963,21.048283 0 0 0 -5.88249,-0.838417 z"
       inkscape:label="white vertical" /><path
       id="path5700"
       style="opacity:1;fill:#264048;fill-opacity:1;stroke-width:0.857179;stroke-linecap:square;stroke-miterlimit:15.6;stroke-dasharray:20.5723, 5.14307, 2.57153, 5.14307"
       d="M 73.116186,136.26041 A 21.047963,21.048283 0 0 0 94.163885,115.2124 21.047963,21.048283 0 0 0 73.115049,94.164367 H 21.842586 A 21.047963,21.048283 0 0 0 0.79374902,115.2124 21.047963,21.048283 0 0 0 21.842586,136.26041 Z"
       inkscape:label="black horizontal" /><path
       id="path5702"
       style="opacity:1;fill:#264048;fill-opacity:1;stroke-width:0.857179;stroke-linecap:square;stroke-miterlimit:15.6;stroke-dasharray:20.5723, 5.14307, 2.57153, 5.14307"
       d="m 21.842586,136.26041 a 21.047963,21.048283 0 0 0 20.112737,-14.84392 21.047963,21.048283 0 0 0 0.406704,-1.52006 21.047963,21.048283 0 0 0 0.528276,-4.68403 V 63.938019 A 21.047963,21.048283 0 0 0 21.842586,42.890004 21.047963,21.048283 0 0 0 0.79374902,63.938019 V 115.2124 a 21.047963,21.048283 0 0 0 7.15375268,15.80958 21.047963,21.048283 0 0 0 0.8315893,0.69414 21.047963,21.048283 0 0 0 6.148335,3.3764 21.047963,21.048283 0 0 0 1.032677,0.32948 21.047963,21.048283 0 0 0 5.882483,0.83841 z"
       inkscape:label="black vertical" /><path
       id="path5704"
       style="fill:#000000;stroke-width:0.857179;stroke-linecap:square;stroke-miterlimit:15.6;stroke-dasharray:20.5723, 5.14307, 2.57153, 5.14307"
       d="m 21.842586,136.26022 a 21.047963,21.048283 0 0 0 20.112737,-14.84392 21.047963,21.048283 0 0 0 0.406704,-1.52007 21.047963,21.048283 0 0 0 0.528254,-4.68403 V 94.16417 H 21.842586 a 21.047963,21.048283 0 0 0 -21.04883698,21.04803 21.047963,21.048283 0 0 0 0.10002727,2.02903 21.047963,21.048283 0 0 0 0.0850781,0.5987 21.047963,21.048283 0 0 0 0.20796881,1.40532 21.047963,21.048283 0 0 0 0.1886228,0.78276 21.047963,21.048283 0 0 0 0.2942561,1.17583 21.047963,21.048283 0 0 0 0.2987628,0.86911 21.047963,21.048283 0 0 0 0.3726289,1.04063 21.047963,21.048283 0 0 0 0.3964818,0.87818 21.047963,21.048283 0 0 0 0.4510241,0.95318 21.047963,21.048283 0 0 0 0.482813,0.84409 21.047963,21.048283 0 0 0 0.5475779,0.91455 21.047963,21.048283 0 0 0 0.5544149,0.78616 21.047963,21.048283 0 0 0 0.627094,0.84637 21.047963,21.048283 0 0 0 0.6452749,0.75321 21.047963,21.048283 0 0 0 0.6952664,0.76686 21.047963,21.048283 0 0 0 0.7134473,0.68958 21.047963,21.048283 0 0 0 0.9099844,0.82366 21.047963,21.048283 0 0 0 0.2203897,0.18511 21.047963,21.048283 0 0 0 1.3700879,1.01566 21.047963,21.048283 0 0 0 0.2158829,0.15675 21.047963,21.048283 0 0 0 1.654099,0.99065 21.047963,21.048283 0 0 0 0.523725,0.26131 21.047963,21.048283 0 0 0 1.221256,0.57599 21.047963,21.048283 0 0 0 0.663455,0.26355 21.047963,21.048283 0 0 0 1.376903,0.49192 21.047963,21.048283 0 0 0 0.189722,0.0602 21.047963,21.048283 0 0 0 1.257618,0.3147 21.047963,21.048283 0 0 0 0.752073,0.18181 21.047963,21.048283 0 0 0 1.405284,0.20798 21.047963,21.048283 0 0 0 0.598713,0.0853 21.047963,21.048283 0 0 0 2.028993,0.10002 z"
       inkscape:label="black" /></g></svg>
