<?xml version="1.0" encoding="UTF-8" standalone="no"?>
<!-- Created with Inkscape (http://www.inkscape.org/) -->

<svg
   width="512"
   height="512"
   viewBox="0 0 135.46666 135.46667"
   version="1.1"
   id="svg5"
   xml:space="preserve"
   inkscape:version="1.2 (dc2aedaf03, 2022-05-15)"
   sodipodi:docname="YumiSign_disabled.svg"
   inkscape:export-filename=".\YumiSign_disabled.png"
   inkscape:export-xdpi="96"
   inkscape:export-ydpi="96"
   xmlns:inkscape="http://www.inkscape.org/namespaces/inkscape"
   xmlns:sodipodi="http://sodipodi.sourceforge.net/DTD/sodipodi-0.dtd"
   xmlns="http://www.w3.org/2000/svg"
   xmlns:svg="http://www.w3.org/2000/svg"><sodipodi:namedview
     id="namedview7"
     pagecolor="#ffffff"
     bordercolor="#000000"
     borderopacity="0.25"
     inkscape:showpageshadow="2"
     inkscape:pageopacity="0.0"
     inkscape:pagecheckerboard="0"
     inkscape:deskcolor="#d1d1d1"
     inkscape:document-units="px"
     showgrid="false"
     inkscape:zoom="2.2773438"
     inkscape:cx="173.44768"
     inkscape:cy="256.4391"
     inkscape:window-width="2560"
     inkscape:window-height="1369"
     inkscape:window-x="-8"
     inkscape:window-y="-8"
     inkscape:window-maximized="1"
     inkscape:current-layer="svg5" /><defs
     id="defs2" /><g
     inkscape:groupmode="layer"
     id="layer2"
     inkscape:label="Layer 2" /><path
     id="path5700"
     style="opacity:1;fill:#d8d8d8;stroke-width:0.857179;stroke-linecap:square;stroke-miterlimit:15.6;stroke-dasharray:20.5723, 5.14307, 2.57153, 5.14307;fill-opacity:1"
     d="M 72.322436,135.46666 A 21.047963,21.048283 0 0 0 93.370135,114.41865 21.047963,21.048283 0 0 0 72.321299,93.370613 H 21.048836 A 21.047963,21.048283 0 0 0 -1.939664e-6,114.41865 21.047963,21.048283 0 0 0 21.048836,135.46666 Z" /><path
     id="path5702"
     style="opacity:1;fill:#d8d8d8;stroke-width:0.857179;stroke-linecap:square;stroke-miterlimit:15.6;stroke-dasharray:20.5723, 5.14307, 2.57153, 5.14307;fill-opacity:1"
     d="m 21.048836,135.46666 a 21.047963,21.048283 0 0 0 20.112737,-14.84392 21.047963,21.048283 0 0 0 0.406704,-1.52006 21.047963,21.048283 0 0 0 0.528276,-4.68403 V 63.144265 A 21.047963,21.048283 0 0 0 21.048836,42.09625 21.047963,21.048283 0 0 0 -1.939664e-6,63.144265 V 114.41865 A 21.047963,21.048283 0 0 0 7.1537508,130.22823 a 21.047963,21.048283 0 0 0 0.8315893,0.69414 21.047963,21.048283 0 0 0 6.1483359,3.3764 21.047963,21.048283 0 0 0 1.032677,0.32948 21.047963,21.048283 0 0 0 5.882483,0.83841 z" /><path
     id="path5704"
     style="fill:#b9b9b9;stroke-width:0.857179;stroke-linecap:square;stroke-miterlimit:15.6;stroke-dasharray:20.5723, 5.14307, 2.57153, 5.14307;fill-opacity:1"
     d="m 21.048836,135.46647 a 21.047963,21.048283 0 0 0 20.112737,-14.84392 21.047963,21.048283 0 0 0 0.406704,-1.52007 21.047963,21.048283 0 0 0 0.528254,-4.68403 V 93.370416 H 21.048836 A 21.047963,21.048283 0 0 0 -1.939664e-6,114.41845 21.047963,21.048283 0 0 0 0.10002533,116.44748 a 21.047963,21.048283 0 0 0 0.0850781,0.5987 21.047963,21.048283 0 0 0 0.20796879,1.40532 21.047963,21.048283 0 0 0 0.18862285,0.78276 21.047963,21.048283 0 0 0 0.29425606,1.17583 21.047963,21.048283 0 0 0 0.29876287,0.86911 21.047963,21.048283 0 0 0 0.3726289,1.04063 21.047963,21.048283 0 0 0 0.3964818,0.87818 21.047963,21.048283 0 0 0 0.4510241,0.95318 21.047963,21.048283 0 0 0 0.482813,0.84409 21.047963,21.048283 0 0 0 0.5475779,0.91455 21.047963,21.048283 0 0 0 0.5544149,0.78616 21.047963,21.048283 0 0 0 0.627094,0.84637 21.047963,21.048283 0 0 0 0.6452749,0.75321 21.047963,21.048283 0 0 0 0.6952664,0.76686 21.047963,21.048283 0 0 0 0.7134473,0.68958 21.047963,21.048283 0 0 0 0.9099844,0.82366 21.047963,21.048283 0 0 0 0.2203897,0.18511 21.047963,21.048283 0 0 0 1.3700879,1.01566 21.047963,21.048283 0 0 0 0.215883,0.15675 21.047963,21.048283 0 0 0 1.6540998,0.99065 21.047963,21.048283 0 0 0 0.523725,0.26131 21.047963,21.048283 0 0 0 1.221256,0.57599 21.047963,21.048283 0 0 0 0.663455,0.26355 21.047963,21.048283 0 0 0 1.376903,0.49192 21.047963,21.048283 0 0 0 0.189722,0.0602 21.047963,21.048283 0 0 0 1.257618,0.3147 21.047963,21.048283 0 0 0 0.752073,0.18181 21.047963,21.048283 0 0 0 1.405284,0.20798 21.047963,21.048283 0 0 0 0.598713,0.0853 21.047963,21.048283 0 0 0 2.028993,0.10002 z" /><path
     id="path354-1"
     style="opacity:1;fill:#d8d8d8;stroke-width:0.857179;stroke-linecap:square;stroke-miterlimit:15.6;stroke-dasharray:20.5723, 5.14307, 2.57153, 5.14307;fill-opacity:1"
     d="M 63.144224,-4.46015e-6 A 21.047963,21.048283 0 0 0 42.096525,21.04801 21.047963,21.048283 0 0 0 63.145361,42.096047 H 114.41782 A 21.047963,21.048283 0 0 0 135.46666,21.04801 21.047963,21.048283 0 0 0 114.41782,-4.46015e-6 Z" /><path
     id="path354-3-8"
     style="opacity:1;fill:#d8d8d8;stroke-width:0.857179;stroke-linecap:square;stroke-miterlimit:15.6;stroke-dasharray:20.5723, 5.14307, 2.57153, 5.14307;fill-opacity:1"
     d="M 114.41782,-4.46015e-6 A 21.047963,21.048283 0 0 0 94.305087,14.843917 21.047963,21.048283 0 0 0 93.898383,16.363981 21.047963,21.048283 0 0 0 93.370107,21.04801 V 72.322395 A 21.047963,21.048283 0 0 0 114.41782,93.37041 21.047963,21.048283 0 0 0 135.46666,72.322395 V 21.04801 A 21.047963,21.048283 0 0 0 128.31291,5.2384265 21.047963,21.048283 0 0 0 127.48132,4.5442926 21.047963,21.048283 0 0 0 121.33298,1.1678921 21.047963,21.048283 0 0 0 120.30031,0.8384127 21.047963,21.048283 0 0 0 114.41782,-4.46015e-6 Z" /><path
     id="path5693"
     style="fill:#b9b9b9;stroke-width:0.857179;stroke-linecap:square;stroke-miterlimit:15.6;stroke-dasharray:20.5723, 5.14307, 2.57153, 5.14307;fill-opacity:1"
     d="M 114.41782,1.93399e-4 A 21.047963,21.048283 0 0 0 94.305087,14.844114 a 21.047963,21.048283 0 0 0 -0.406704,1.520064 21.047963,21.048283 0 0 0 -0.528254,4.68403 v 21.048036 h 21.047691 a 21.047963,21.048283 0 0 0 21.04884,-21.048036 21.047963,21.048283 0 0 0 -0.10003,-2.029024 21.047963,21.048283 0 0 0 -0.0851,-0.598699 21.047963,21.048283 0 0 0 -0.20797,-1.405328 21.047963,21.048283 0 0 0 -0.18863,-0.782753 21.047963,21.048283 0 0 0 -0.29425,-1.175833 21.047963,21.048283 0 0 0 -0.29876,-0.869107 21.047963,21.048283 0 0 0 -0.37263,-1.040629 21.047963,21.048283 0 0 0 -0.39648,-0.878187 21.047963,21.048283 0 0 0 -0.45103,-0.953176 21.047963,21.048283 0 0 0 -0.48281,-0.844089 21.047963,21.048283 0 0 0 -0.54758,-0.9145487 21.047963,21.048283 0 0 0 -0.55441,-0.7861603 21.047963,21.048283 0 0 0 -0.6271,-0.8463755 21.047963,21.048283 0 0 0 -0.64527,-0.7532058 21.047963,21.048283 0 0 0 -0.69527,-0.7668581 21.047963,21.048283 0 0 0 -0.71345,-0.6895832 21.047963,21.048283 0 0 0 -0.90998,-0.8236656 21.047963,21.048283 0 0 0 -0.22039,-0.1851082 21.047963,21.048283 0 0 0 -1.37009,-1.015655 21.047963,21.048283 0 0 0 -0.21588,-0.1567484 21.047963,21.048283 0 0 0 -1.6541,-0.9906588 21.047963,21.048283 0 0 0 -0.52373,-0.261306 21.047963,21.048283 0 0 0 -1.22125,-0.57599 21.047963,21.048283 0 0 0 -0.66346,-0.2635484 21.047963,21.048283 0 0 0 -1.3769,-0.49192177 21.047963,21.048283 0 0 0 -0.18972,-0.0602371 A 21.047963,21.048283 0 0 0 119.20277,0.57510616 21.047963,21.048283 0 0 0 118.4507,0.39329558 21.047963,21.048283 0 0 0 117.04541,0.18532363 21.047963,21.048283 0 0 0 116.4467,0.10002433 21.047963,21.048283 0 0 0 114.41771,-4.4601501e-6 Z" /></svg>
